<?xml version="1.0" standalone="no"?>
<!DOCTYPE svg PUBLIC "-//W3C//DTD SVG 20010904//EN"
 "http://www.w3.org/TR/2001/REC-SVG-20010904/DTD/svg10.dtd">
<svg version="1.0" xmlns="http://www.w3.org/2000/svg"
 width="300.000000pt" height="239.000000pt" viewBox="0 0 300.000000 239.000000"
 preserveAspectRatio="xMidYMid meet">
<metadata>
Created by potrace 1.10, written by Peter Selinger 2001-2011
</metadata>
<g transform="translate(0.000000,239.000000) scale(0.100000,-0.100000)"
fill="#000000" stroke="none">
<path d="M1340 2315 c-171 -21 -282 -50 -427 -113 l-82 -35 -80 52 c-163 108
-294 127 -424 63 -113 -56 -208 -178 -251 -321 -22 -74 -22 -260 0 -347 25
-97 268 -581 395 -787 31 -50 44 -79 36 -81 -6 -2 -64 -9 -127 -16 -143 -15
-272 -38 -285 -52 -7 -7 -1 -8 20 -4 65 13 225 26 331 26 108 0 111 -1 137
-28 15 -15 27 -33 27 -39 0 -5 -30 -13 -67 -17 -149 -14 -417 -82 -483 -122
l-25 -15 25 6 c14 3 68 16 120 30 107 27 261 51 395 61 l90 6 29 -31 c18 -19
26 -34 20 -40 -5 -4 -42 -18 -82 -31 -130 -41 -307 -143 -372 -216 -29 -31
-29 -31 64 30 84 55 222 116 340 150 110 32 123 32 165 -3 l35 -29 -55 -27
c-85 -43 -165 -101 -245 -178 -88 -82 -99 -109 -17 -39 32 27 78 63 103 79 54
37 207 119 236 127 35 10 264 -107 337 -173 172 -153 377 -152 546 3 70 65
289 181 327 173 41 -8 235 -121 312 -183 42 -34 79 -60 81 -58 8 8 -92 104
-159 153 -36 27 -96 65 -134 86 l-69 38 34 29 c29 25 40 28 79 24 106 -11 358
-117 455 -191 79 -60 62 -31 -19 34 -100 79 -185 126 -312 170 l-104 37 34 33
35 33 98 -7 c130 -9 366 -49 442 -75 70 -23 97 -26 61 -5 -70 41 -347 110
-487 122 -40 3 -73 9 -73 12 1 3 14 21 30 40 l29 34 173 -7 c95 -3 200 -8 233
-11 l60 -4 -55 14 c-66 17 -267 45 -327 45 -24 0 -43 5 -43 10 0 6 17 39 39
73 118 191 371 696 394 790 11 43 17 108 17 186 0 130 -20 213 -74 305 -38 66
-123 143 -196 179 -58 29 -73 32 -155 32 -80 0 -97 -4 -158 -32 -37 -18 -95
-51 -127 -74 l-59 -41 -111 46 c-121 52 -272 89 -422 105 -116 13 -142 13
-278 -4z m298 -70 c106 -7 244 -39 358 -85 43 -17 81 -33 83 -36 3 -2 -8 -17
-23 -33 -29 -30 -32 -64 -5 -69 8 -1 65 33 125 77 154 113 220 145 309 149 62
4 80 0 131 -24 155 -73 254 -261 241 -459 -9 -146 -43 -227 -312 -740 -32 -60
-83 -148 -114 -195 l-56 -85 -125 -6 c-69 -3 -157 -10 -196 -14 l-71 -7 -7 32
c-8 42 -8 245 0 253 4 4 19 -2 34 -13 43 -31 129 -28 170 6 41 35 60 74 60
124 0 138 -162 200 -257 98 -69 -73 -92 -223 -73 -473 7 -95 10 -194 7 -220
-24 -172 -218 -303 -374 -251 -45 15 -53 15 -92 1 -60 -21 -110 -19 -178 6
-72 28 -144 94 -180 168 -27 53 -28 61 -24 171 3 63 5 187 5 275 1 142 -2 168
-22 226 -21 62 -79 139 -105 139 -5 0 1 9 14 19 21 18 22 21 9 34 -28 28 -150
89 -166 83 -9 -3 -14 -15 -12 -28 2 -15 24 -33 73 -60 l70 -38 -44 0 c-27 0
-57 -8 -79 -22 -36 -22 -72 -85 -72 -128 0 -42 37 -108 72 -130 44 -27 122
-27 166 0 l33 20 -3 -142 -3 -143 -40 1 c-22 1 -109 5 -194 9 -145 8 -154 9
-176 33 -80 87 -414 731 -452 872 -24 90 -23 238 1 310 44 130 120 223 221
271 114 55 210 36 371 -74 170 -116 192 -129 203 -122 19 11 12 40 -14 65 -14
13 -25 27 -25 30 0 10 149 65 240 89 104 28 293 50 370 44 19 -1 77 -5 128 -8z
m-744 -1058 c16 -25 -16 -56 -38 -37 -19 15 -20 32 -4 48 15 15 28 11 42 -11z
m-29 -508 c114 -10 148 -19 131 -36 -4 -5 -69 -9 -143 -11 l-135 -4 -29 28
c-39 38 -36 46 14 40 23 -3 96 -11 162 -17z m1455 12 c0 -4 -9 -20 -21 -35
-20 -26 -23 -26 -142 -26 -132 0 -167 5 -167 25 0 9 36 16 118 24 64 7 126 13
137 15 43 7 75 6 75 -3z m-1331 -117 c13 -11 -20 -22 -88 -28 -66 -6 -84 -4
-105 10 -14 9 -26 20 -26 25 0 8 209 2 219 -7z m1231 9 c0 -5 -15 -18 -33 -29
-30 -21 -37 -21 -111 -10 -84 12 -111 32 -54 39 61 7 198 7 198 0z m-1220 -93
c0 -32 -43 -43 -85 -23 -19 9 -35 20 -35 24 0 4 19 10 43 12 23 2 50 4 60 5
11 1 17 -5 17 -18z m1076 10 c33 0 30 -16 -5 -35 -23 -11 -36 -12 -60 -4 -50
17 -39 55 13 45 16 -3 39 -6 52 -6z m-1046 -86 c0 -12 -4 -13 -21 -3 -17 9
-19 13 -8 19 16 11 29 4 29 -16z m960 6 c0 -10 -31 -23 -38 -15 -8 7 19 35 29
29 5 -3 9 -9 9 -14z m-388 -249 c-37 -21 -166 -19 -212 1 -33 15 -33 16 -10
18 14 1 45 7 70 13 36 10 58 9 112 -3 l67 -15 -27 -14z"/>
<path d="M374 2166 c-111 -48 -184 -178 -184 -326 0 -90 18 -156 72 -265 60
-120 197 -362 212 -374 14 -12 46 -5 46 9 0 4 -21 55 -46 114 -25 59 -44 112
-42 118 3 7 24 -14 47 -45 42 -55 81 -75 81 -42 0 8 -27 75 -60 150 -33 75
-60 140 -60 145 0 28 27 12 95 -57 81 -82 84 -82 59 5 -5 16 -2 22 9 22 29 0
28 20 -8 100 -36 83 -42 110 -25 110 5 0 39 -14 75 -32 84 -42 97 -32 59 45
-16 31 -25 59 -21 63 3 4 33 -16 65 -45 59 -50 92 -64 92 -37 0 20 -151 224
-202 273 -63 60 -112 83 -178 83 -30 -1 -69 -7 -86 -14z"/>
<path d="M2434 2166 c-18 -8 -51 -31 -75 -53 -50 -45 -219 -268 -219 -289 0
-26 32 -14 92 36 33 28 64 50 69 50 9 0 -1 -31 -26 -80 -18 -35 -19 -60 -2
-60 6 0 39 14 72 30 60 30 86 37 84 23 0 -5 -18 -46 -39 -93 l-39 -85 24 -20
c22 -18 22 -22 10 -45 -8 -14 -14 -34 -15 -45 0 -14 20 1 78 58 42 42 81 77
86 77 16 0 -2 -54 -58 -180 -31 -69 -56 -131 -56 -137 0 -31 40 -9 79 42 43
57 68 73 51 33 -5 -13 -27 -65 -48 -117 -39 -93 -43 -121 -16 -121 20 0 52 48
147 221 112 202 145 277 159 359 37 213 -94 411 -271 410 -31 -1 -70 -7 -87
-14z"/>
<path d="M2077 1358 c-64 -33 -77 -45 -75 -62 5 -33 37 -30 113 12 57 31 70
43 70 63 0 36 -22 33 -108 -13z"/>
<path d="M1173 1140 c0 -25 2 -35 4 -22 2 12 2 32 0 45 -2 12 -4 2 -4 -23z"/>
<path d="M1803 1135 c0 -27 2 -38 4 -22 2 15 2 37 0 50 -2 12 -4 0 -4 -28z"/>
<path d="M1371 740 c-104 -22 -167 -106 -142 -190 17 -57 75 -102 165 -128 94
-28 108 -27 206 3 122 39 175 104 155 193 -8 37 -59 90 -105 110 -42 18 -215
25 -279 12z m-69 -150 c-2 -16 -6 -30 -8 -30 -2 0 -4 14 -4 30 0 17 4 30 8 30
5 0 7 -13 4 -30z m385 -22 c-2 -13 -4 -5 -4 17 -1 22 1 32 4 23 2 -10 2 -28 0
-40z"/>
</g>
</svg>
